<svg width="25" height="25" viewBox="0 0 25 25" fill="none" xmlns="http://www.w3.org/2000/svg">
<g clip-path="url(#clip0_277_8728)">
<mask id="mask0_277_8728" style="mask-type:luminance" maskUnits="userSpaceOnUse" x="0" y="0" width="25" height="25">
<path d="M25 0H0V25H25V0Z" fill="white"/>
</mask>
<g mask="url(#mask0_277_8728)">
<path fill-rule="evenodd" clip-rule="evenodd" d="M8.23692 1.96818C9.45406 1.07842 11.0915 1.59799 11.797 2.82002L12.8386 4.62424C13.5578 5.86979 13.131 7.46248 11.8854 8.1816L10.9833 8.70244C10.7343 8.84626 10.4157 8.76091 10.2719 8.51179C10.1281 8.26269 10.2134 7.94415 10.4625 7.80032L11.3646 7.27949C12.112 6.84802 12.368 5.89241 11.9366 5.14507L10.8949 3.34085C10.4498 2.57 9.49225 2.34082 8.85166 2.8091C7.34595 3.90981 5.86982 5.5597 5.8822 8.33753C5.8875 9.52957 6.00033 10.4565 6.35481 11.5186C6.71401 12.5947 7.32762 13.8288 8.36551 15.6265C10.4075 19.1633 12.1393 20.5643 13.4608 21.4368C14.7682 22.3 15.9265 22.5639 16.943 22.5252C17.9693 22.4862 18.8926 22.1371 19.7227 21.7073C20.451 21.3301 20.7139 20.3479 20.2699 19.5788L19.2282 17.7746C18.7968 17.0272 17.8411 16.7712 17.0938 17.2026L16.7493 17.4016C16.2404 17.6954 15.578 17.6889 15.0881 17.2831C14.3726 16.6902 13.0805 15.4598 11.974 13.5432C11.5921 12.8818 11.2922 12.2424 11.0568 11.6512C10.9503 11.3839 11.0807 11.081 11.3479 10.9746C11.6152 10.8682 11.9181 10.9986 12.0245 11.2658C12.243 11.8145 12.5215 12.4082 12.876 13.0223C13.905 14.8045 15.1045 15.9439 15.7527 16.481C15.8705 16.5786 16.0538 16.6004 16.2284 16.4995L16.5729 16.3006C17.8185 15.5815 19.4113 16.0083 20.1303 17.2538L21.172 19.058C21.8785 20.2818 21.5168 21.9513 20.2017 22.6323C19.3016 23.0984 18.2222 23.519 16.9826 23.5661C15.7332 23.6137 14.3624 23.2804 12.8869 22.3062C11.4335 21.3466 9.58808 19.8274 7.4634 16.1473C6.41796 14.3366 5.7605 13.0282 5.36673 11.8484C4.96823 10.6544 4.84619 9.6121 4.84054 8.34217C4.82613 5.10584 6.58091 3.17875 8.23692 1.96818Z" fill="white"/>
</g>
</g>
<defs>
<clipPath id="clip0_277_8728">
<rect width="25" height="25" fill="white"/>
</clipPath>
</defs>
</svg>
