<svg width="19" height="18" viewBox="0 0 19 18" fill="none" xmlns="http://www.w3.org/2000/svg">
<path d="M9.47285 0C7.74925 0 6.06436 0.505197 4.63123 1.45172C3.19812 2.39828 2.08113 3.74361 1.42155 5.31761C0.761956 6.89161 0.589373 8.62359 0.925634 10.2946C1.26189 11.9654 2.09188 13.5003 3.31064 14.705C4.5294 15.9097 6.08226 16.7301 7.77266 17.0625C9.46315 17.3948 11.2154 17.2243 12.8078 16.5723C14.4003 15.9203 15.7613 14.8163 16.7189 13.3997C17.6764 11.9831 18.1875 10.3177 18.1875 8.614C18.1875 6.32946 17.2694 4.13838 15.635 2.52299C14.0008 0.907541 11.7841 0 9.47285 0ZM9.47285 16.0398C7.98703 16.0398 6.53451 15.6043 5.29907 14.7884C4.06363 13.9724 3.10069 12.8127 2.53207 11.4557C1.96345 10.0989 1.81468 8.6058 2.10456 7.16526C2.39444 5.72482 3.10995 4.40162 4.16061 3.36313C5.21123 2.32459 6.5499 1.61735 8.00718 1.33083C9.46455 1.0443 10.9751 1.19135 12.3478 1.75339C13.7206 2.31544 14.8939 3.26727 15.7194 4.48844C16.5449 5.70961 16.9855 7.14526 16.9855 8.614C16.9855 9.58917 16.7912 10.5548 16.4137 11.4557C16.0361 12.3567 15.4827 13.1754 14.7851 13.8649C14.0875 14.5544 13.2593 15.1014 12.3478 15.4746C11.4364 15.8478 10.4594 16.0398 9.47285 16.0398Z" fill="#00A0A8"/>
<path d="M14.0859 9.35258H8.9595V3.93801C8.9595 3.80742 8.89469 3.68224 8.7794 3.58991C8.66401 3.49766 8.50748 3.4458 8.34437 3.4458C8.18126 3.4458 8.02474 3.49766 7.90935 3.58991C7.79405 3.68224 7.72925 3.80742 7.72925 3.93801V9.84479C7.72925 9.97531 7.79405 10.1006 7.90935 10.1929C8.02474 10.2851 8.18126 10.337 8.34437 10.337H14.0859C14.249 10.337 14.4054 10.2851 14.5208 10.1929C14.6362 10.1006 14.701 9.97531 14.701 9.84479C14.701 9.71427 14.6362 9.58903 14.5208 9.49669C14.4054 9.40444 14.249 9.35258 14.0859 9.35258Z" fill="#00A0A8"/>
</svg>
