<svg width="21" height="20" viewBox="0 0 21 20" fill="none" xmlns="http://www.w3.org/2000/svg">
<path d="M11.5657 10.5687C11.3351 11.1132 11.4692 11.7461 11.9654 11.9513C12.4743 12.1608 13.0161 11.7921 13.2406 11.2608C13.5021 10.6419 13.2784 10.0578 12.8424 9.87813C12.3365 9.66832 11.7914 10.0347 11.5657 10.5687ZM12.5461 10.5732C12.5748 10.5951 12.6271 10.7555 12.5362 10.9698C12.4457 11.1842 12.2907 11.2596 12.2613 11.2559C12.2315 11.2347 12.1785 11.0766 12.2701 10.8596C12.3587 10.6498 12.5053 10.5728 12.5431 10.5728L12.5461 10.5732ZM10.6247 9.20228C10.8075 9.64153 11.4016 9.85625 12.0204 9.60568C12.6465 9.35134 12.9084 8.78266 12.7282 8.34908C12.524 7.85738 11.8857 7.72002 11.3313 7.9453C10.7022 8.2004 10.4456 8.76983 10.6251 9.20191L10.6247 9.20228ZM11.6211 8.64342C11.715 8.6053 11.9632 8.55738 12.0212 8.6336C12.0262 8.66908 11.9487 8.81889 11.7307 8.90719C11.5123 8.99511 11.3516 8.94266 11.3317 8.91662C11.3256 8.88153 11.4016 8.73247 11.6211 8.64342ZM13.759 13.171C14.2629 13.3793 14.8081 13.017 15.0349 12.4812C15.2807 11.8996 15.1059 11.2917 14.6363 11.0978C14.1667 10.9038 13.6055 11.2072 13.3597 11.7883C13.0978 12.4072 13.3219 12.9906 13.759 13.171ZM14.064 12.0796C14.1534 11.8691 14.2992 11.7928 14.337 11.7928C14.338 11.7927 14.339 11.7927 14.34 11.7928C14.3691 11.8147 14.421 11.9751 14.3301 12.1898C14.2396 12.4049 14.0911 12.4804 14.0549 12.4755C14.0255 12.4544 13.9724 12.2959 14.064 12.0796ZM10.6457 11.611C11.0351 11.0638 10.9457 10.4449 10.5579 10.1755C10.1734 9.90832 9.55229 10.0279 9.1606 10.5781C8.7689 11.1291 8.86358 11.7449 9.24955 12.0136C9.63055 12.2785 10.2486 12.1683 10.6457 11.611ZM10.0211 11.1766C9.88596 11.3668 9.72332 11.4083 9.69011 11.397C9.66568 11.3706 9.64812 11.2045 9.78517 11.0125C9.90772 10.84 10.0536 10.7898 10.1039 10.7898C10.1097 10.7898 10.1139 10.7902 10.1169 10.7913C10.1406 10.8185 10.1566 10.9864 10.0211 11.1766ZM11.3191 12.1189C10.8484 12.1381 10.4304 12.6083 10.459 13.2796C10.4872 13.9404 10.9267 14.3649 11.3825 14.3649C11.3932 14.3649 11.4035 14.3649 11.4142 14.3642C11.8891 14.3445 12.3014 13.8698 12.2732 13.2045C12.2438 12.5238 11.7734 12.0895 11.3191 12.1189ZM11.3833 13.6102C11.3477 13.6038 11.2317 13.4823 11.2218 13.2479C11.2118 13.014 11.3172 12.8827 11.3485 12.8728C11.3844 12.8804 11.5001 13.0038 11.51 13.2362C11.5199 13.4683 11.4149 13.6008 11.3833 13.6102Z" fill="#00A0A8"/>
<path d="M11.6674 6.53584C9.983 3.69962 8.01613 1.09169 7.99627 1.0649C7.96073 1.01789 7.91458 0.979722 7.86149 0.953432C7.80841 0.927141 7.74985 0.913452 7.69048 0.913452C7.6311 0.913452 7.57255 0.927141 7.51946 0.953432C7.46638 0.979722 7.42023 1.01789 7.38468 1.0649C7.1331 1.39773 1.23096 9.24603 1.23096 12.657C1.23096 16.1777 4.12858 19.0419 7.69048 19.0419C10.1613 19.0419 12.4221 17.6355 13.5021 15.4479C13.706 15.3811 13.903 15.3 14.0935 15.2064L14.8074 15.9649C14.7797 16.0396 14.7635 16.1179 14.7593 16.1974C14.7549 16.3021 14.7717 16.4067 14.8085 16.505C14.8453 16.6034 14.9015 16.6935 14.9739 16.7702L16.6384 18.5374C17.2931 19.2328 18.3972 19.2724 19.0981 18.6279C19.2666 18.4742 19.4026 18.2891 19.4984 18.0833C19.5943 17.8774 19.648 17.6549 19.6565 17.4284C19.665 17.202 19.6282 16.9761 19.5481 16.7638C19.4679 16.5515 19.3462 16.3569 19.1897 16.1913L17.5283 14.4245C17.4284 14.3187 17.3012 14.242 17.1603 14.2025C17.0195 14.1631 16.8704 14.1625 16.7292 14.2007L16.023 13.4483C16.4194 12.7892 16.6412 12.0418 16.6678 11.2755C16.6917 10.6725 16.5942 10.0708 16.3811 9.50527C16.168 8.93977 15.8434 8.42171 15.4262 7.98113C14.9504 7.47573 14.3652 7.08321 13.7143 6.83293C13.0633 6.58265 12.3636 6.48109 11.6674 6.53584ZM7.69048 18.2868C4.54967 18.2868 1.99449 15.7611 1.99449 12.6566C1.99449 9.91358 6.46729 3.60452 7.69048 1.93018C8.28069 2.73622 9.62604 4.61962 10.8565 6.66075C10.8404 6.66452 10.8252 6.67169 10.8095 6.67584C10.2889 6.81408 9.79752 7.0435 9.3588 7.3532C9.32941 7.37396 9.30039 7.39547 9.271 7.41735C8.0753 8.29509 7.43775 9.58603 7.38735 10.9381C7.36338 11.5409 7.46078 12.1424 7.6739 12.7076C7.88703 13.2729 8.21163 13.7907 8.62886 14.2309C9.11359 14.7444 9.71101 15.1412 10.3752 15.3907C11.0393 15.6402 11.7525 15.7358 12.4599 15.6702C12.4759 15.6687 12.4924 15.6698 12.5084 15.6679C11.9923 16.4692 11.2805 17.1291 10.4385 17.5868C9.59647 18.0445 8.65141 18.2852 7.69048 18.2868ZM18.6308 16.7053C18.7187 16.7983 18.7871 16.9075 18.8321 17.0268C18.8771 17.146 18.8978 17.2729 18.893 17.4C18.8882 17.5272 18.858 17.6522 18.8042 17.7678C18.7503 17.8834 18.6739 17.9873 18.5793 18.0736C18.4852 18.16 18.3747 18.2272 18.2544 18.2713C18.134 18.3155 18.0059 18.3358 17.8776 18.3311C17.7493 18.3264 17.6231 18.2967 17.5064 18.2438C17.3897 18.1908 17.2846 18.1157 17.1973 18.0226L15.5331 16.2566C15.5194 16.2415 15.5205 16.2098 15.5354 16.1962L16.9098 14.9351C16.9175 14.9287 16.9273 14.9253 16.9373 14.9257C16.9487 14.9257 16.9613 14.9294 16.9686 14.9374L18.6308 16.7053ZM15.569 14.0736L16.1035 14.6434L15.3006 15.3811L14.765 14.8121C14.9128 14.7057 15.0552 14.5906 15.1918 14.4657L15.1926 14.4649C15.3239 14.3441 15.4446 14.2158 15.5599 14.083L15.569 14.0736ZM14.8666 8.49509C15.2153 8.86319 15.4867 9.29606 15.665 9.76861C15.8432 10.2412 15.9248 10.744 15.905 11.2479C15.8869 11.7501 15.7685 12.2437 15.5568 12.7006C15.345 13.1574 15.044 13.5683 14.6711 13.9098C13.102 15.3453 10.6572 15.277 9.18777 13.7166C8.83912 13.3488 8.56789 12.9163 8.38982 12.444C8.21175 11.9718 8.13041 11.4692 8.15051 10.9657C8.19632 9.74301 8.81669 8.60792 9.90359 7.89811C11.4902 6.86264 13.5873 7.13131 14.8666 8.49509Z" fill="#00A0A8"/>
<path d="M7.69038 16.7777C5.39137 16.7777 3.52147 14.9294 3.52147 12.657C3.52147 11.1868 5.77123 7.30149 8.00038 4.103C8.03032 4.06227 8.05172 4.01604 8.06331 3.96702C8.0749 3.91799 8.07645 3.86718 8.06786 3.81755C8.05928 3.76793 8.04074 3.72051 8.01333 3.67807C7.98593 3.63564 7.95021 3.59906 7.90828 3.57048C7.86635 3.5419 7.81906 3.52191 7.76919 3.51167C7.71932 3.50143 7.66789 3.50116 7.61791 3.51087C7.56794 3.52058 7.52043 3.54008 7.4782 3.56821C7.43596 3.59635 7.39985 3.63255 7.37199 3.67469C6.6012 4.77998 2.75793 10.4075 2.75793 12.6573C2.75793 15.3456 4.97066 17.5328 7.69038 17.5328C7.79163 17.5328 7.88874 17.4931 7.96033 17.4223C8.03193 17.3515 8.07215 17.2555 8.07215 17.1554C8.07215 17.0554 8.03193 16.9594 7.96033 16.8886C7.88874 16.8178 7.79163 16.7781 7.69038 16.7781V16.7777Z" fill="#00A0A8"/>
</svg>
