<svg width="11" height="10" viewBox="0 0 11 10" fill="none" xmlns="http://www.w3.org/2000/svg">
<path d="M5.19692 5.61538C6.69516 5.61538 7.89672 4.35385 7.89672 2.81538C7.89672 1.27692 6.69516 0 5.19692 0C3.69867 0 2.49711 1.26154 2.49711 2.8C2.49711 4.33846 3.69867 5.61538 5.19692 5.61538ZM5.19692 0.738461C6.29464 0.738461 7.18469 1.66154 7.18469 2.8C7.18469 3.93846 6.29464 4.86154 5.19692 4.86154C4.09919 4.86154 3.20915 3.95385 3.20915 2.81538C3.20915 1.67692 4.09919 0.738461 5.19692 0.738461ZM0.509339 10H9.91416C10.107 10 10.2702 9.83077 10.2702 9.63077C10.2702 7.69231 8.74227 6.10769 6.87317 6.10769H3.55033C1.68123 6.10769 0.15332 7.69231 0.15332 9.63077C0.15332 9.83077 0.316495 10 0.509339 10ZM3.55033 6.84615H6.87317C8.23791 6.84615 9.35047 7.89231 9.52847 9.26154H0.895026C1.07304 7.89231 2.18559 6.84615 3.55033 6.84615Z" fill="#C748B1"/>
</svg>
