<svg width="25" height="25" viewBox="0 0 25 25" fill="none" xmlns="http://www.w3.org/2000/svg">
<path d="M12.5 1.95312C8.83942 1.95312 5.85938 4.93317 5.85938 8.59375C5.85938 11.288 7.21309 13.9469 8.67691 15.9218C8.76941 16.0466 8.90768 16.1296 9.06134 16.1525C9.21499 16.1754 9.37145 16.1363 9.49631 16.0439C9.55822 15.998 9.61049 15.9405 9.65014 15.8745C9.68978 15.8084 9.71603 15.7353 9.72736 15.6591C9.7387 15.5829 9.73491 15.5052 9.71621 15.4305C9.69751 15.3558 9.66426 15.2855 9.61838 15.2237C8.25263 13.3811 7.03125 10.8844 7.03125 8.59375C7.03125 5.5665 9.47275 3.125 12.5 3.125C15.5272 3.125 17.9688 5.5665 17.9688 8.59375C17.9688 10.8089 16.8286 13.2173 15.5167 15.0398C14.8607 15.9511 14.1645 16.717 13.5788 17.2386C13.2859 17.4994 13.0193 17.6987 12.8143 17.8215C12.6094 17.9443 12.4523 17.9688 12.5 17.9688C12.5478 17.9688 12.3893 17.9444 12.1834 17.8207C11.9775 17.6971 11.7099 17.4963 11.4159 17.234C11.2999 17.1307 11.1476 17.0776 10.9926 17.0865C10.8375 17.0954 10.6923 17.1654 10.5888 17.2813C10.4855 17.3973 10.4324 17.5496 10.4413 17.7046C10.4502 17.8597 10.5202 18.0049 10.6361 18.1084C10.9701 18.4063 11.2842 18.6475 11.5807 18.8255C11.8772 19.0035 12.1415 19.1406 12.5 19.1406C12.8575 19.1406 13.1215 19.0042 13.4171 18.8271C13.7126 18.6499 14.0257 18.4101 14.3585 18.1137C15.0242 17.5209 15.7645 16.7006 16.4673 15.7242C17.873 13.7714 19.1406 11.1991 19.1406 8.59375C19.1406 4.93317 16.1606 1.95312 12.5 1.95312Z" fill="white"/>
<path d="M12.5 5.46875C10.7811 5.46875 9.375 6.8748 9.375 8.59375C9.375 10.3127 10.7811 11.7188 12.5 11.7188C14.2189 11.7188 15.625 10.3127 15.625 8.59375C15.625 6.8748 14.2189 5.46875 12.5 5.46875ZM12.5 6.64062C13.5856 6.64062 14.4531 7.50813 14.4531 8.59375C14.4531 9.67937 13.5856 10.5469 12.5 10.5469C11.4144 10.5469 10.5469 9.67937 10.5469 8.59375C10.5469 7.50813 11.4144 6.64062 12.5 6.64062Z" fill="white"/>
<path d="M12.5 23.0469C14.6574 23.0469 16.4062 22.5222 16.4062 21.875C16.4062 21.2278 14.6574 20.7031 12.5 20.7031C10.3426 20.7031 8.59375 21.2278 8.59375 21.875C8.59375 22.5222 10.3426 23.0469 12.5 23.0469Z" fill="white"/>
</svg>
