<svg width="18" height="19" viewBox="0 0 18 19" fill="none" xmlns="http://www.w3.org/2000/svg">
<path d="M6.22168 13.5085C6.71538 14.1259 7.2182 14.9023 7.48133 15.3713C7.80178 15.9809 7.93465 16.3925 8.17303 17.1298C8.31241 17.5336 8.44528 17.6561 8.72405 17.6561C9.02886 17.6561 9.16825 17.4503 9.27506 17.1298C9.49781 16.4381 9.66976 15.9118 9.94201 15.4103C10.9919 13.4303 12.7036 12.0235 13.6676 10.0956C13.6676 10.0956 14.3019 8.91799 14.3019 7.26885C14.3019 5.73174 13.6767 4.66357 13.6767 4.66357L6.22559 13.5215L6.22168 13.5085Z" fill="#34A853"/>
<path d="M3.69686 9.89152C4.29738 11.2593 5.4424 12.4577 6.22398 13.5129L10.3664 8.60191C10.3664 8.60191 9.78148 9.36786 8.72504 9.36786C7.54746 9.36786 6.58872 8.42996 6.58872 7.24456C6.58872 6.42911 7.0746 5.86377 7.0746 5.86377C4.02643 6.31709 4.19577 7.05568 3.68774 9.88892L3.69686 9.89152Z" fill="#FBBC04"/>
<path d="M10.4146 1.91406C11.7954 2.35826 12.9678 3.29486 13.6712 4.66263L10.3625 8.60962C10.3625 8.60962 10.8484 8.04167 10.8484 7.22882C10.8484 6.01867 9.82709 5.10552 8.72506 5.10552C7.67905 5.10552 7.08374 5.86236 7.08374 5.86236C7.33775 5.28399 9.96257 2.11076 10.4185 1.91537L10.4146 1.91406Z" fill="#4285F4"/>
<path d="M4.45312 3.65075C5.27639 2.67117 6.71971 1.65771 8.71275 1.65771C9.6754 1.65771 10.4062 1.91303 10.4062 1.91303L7.08445 5.86002C6.8604 5.73849 4.67457 4.03633 4.45312 3.64554V3.65075Z" fill="#1A73E8"/>
<path d="M3.69591 9.89067C3.69591 9.89067 3.15271 8.81209 3.15271 7.25934C3.15271 5.78736 3.72848 4.49775 4.45535 3.66406L7.08667 5.87855L3.69982 9.89067H3.69591Z" fill="#EA4335"/>
</svg>
