<svg width="11" height="10" viewBox="0 0 11 10" fill="none" xmlns="http://www.w3.org/2000/svg">
<path d="M5.38246 5.61538C6.88071 5.61538 8.08227 4.35385 8.08227 2.81538C8.08227 1.27692 6.88071 0 5.38246 0C3.88422 0 2.68266 1.26154 2.68266 2.8C2.68266 4.33846 3.88422 5.61538 5.38246 5.61538ZM5.38246 0.738461C6.48019 0.738461 7.37023 1.66154 7.37023 2.8C7.37023 3.93846 6.48019 4.86154 5.38246 4.86154C4.28474 4.86154 3.39469 3.95385 3.39469 2.81538C3.39469 1.67692 4.28474 0.738461 5.38246 0.738461ZM0.694886 10H10.0997C10.2926 10 10.4557 9.83077 10.4557 9.63077C10.4557 7.69231 8.92782 6.10769 7.05872 6.10769H3.73588C1.86678 6.10769 0.338867 7.69231 0.338867 9.63077C0.338867 9.83077 0.502042 10 0.694886 10ZM3.73588 6.84615H7.05872C8.42346 6.84615 9.53601 7.89231 9.71402 9.26154H1.08057C1.25858 7.89231 2.37114 6.84615 3.73588 6.84615Z" fill="#1561CC"/>
</svg>
