<svg width="30" height="33" viewBox="0 0 30 33" fill="none" xmlns="http://www.w3.org/2000/svg">
<path d="M29.9046 10.9868L28.8598 9.46974C28.8092 9.39617 28.7406 9.33633 28.6604 9.29573C28.5802 9.25513 28.4909 9.23506 28.4007 9.23739L26.3754 9.28967C26.2893 9.29184 26.205 9.31436 26.1296 9.35533C26.0541 9.39631 25.9898 9.45455 25.942 9.52514L25.7358 9.82952L23.6346 11.1554C23.5656 11.1989 23.5077 11.2573 23.465 11.3262C23.4224 11.3951 23.3963 11.4726 23.3887 11.5529L23.3431 12.035H22.5279L20.9243 10.7468C20.8607 10.6957 20.7861 10.6596 20.7062 10.6413C20.6263 10.623 20.5432 10.623 20.4633 10.6412C20.3833 10.6595 20.3087 10.6955 20.2451 10.7466C20.1814 10.7977 20.1305 10.8624 20.0962 10.9359L19.4289 12.3622L13.0395 9.67301L13.4058 8.29551C13.4402 8.16601 13.4237 8.02844 13.3595 7.91045C13.2954 7.79245 13.1883 7.70277 13.0598 7.6594L12.5295 7.48037L11.6564 6.16452L11.7814 6.13439C11.8623 6.11483 11.9374 6.07705 12.0009 6.02403C12.0644 5.971 12.1146 5.90417 12.1474 5.82879C12.1803 5.75342 12.195 5.67155 12.1904 5.58962C12.1857 5.5077 12.1619 5.42795 12.1207 5.35665L11.8194 4.83481L12.9731 2.49952C13.032 2.38037 13.0435 2.24378 13.0054 2.11668C12.9672 1.98957 12.8821 1.88117 12.7669 1.81285L11.7309 1.19682C11.6389 1.14204 11.5323 1.11586 11.425 1.12168L9.2124 1.23699L6.45194 0.0444081C6.37342 0.0105669 6.28783 -0.00429177 6.20231 0.0010688C6.11678 0.00642938 6.0338 0.0318542 5.96025 0.0752268L4.47291 0.952694C4.40018 0.995642 4.33878 1.05492 4.29371 1.12571C4.24863 1.19649 4.22116 1.27678 4.21352 1.36002C4.20589 1.44326 4.21831 1.5271 4.24978 1.60471C4.28124 1.68232 4.33086 1.7515 4.39459 1.80662L5.22378 2.52306L5.26944 4.33964C5.27221 4.46802 5.32213 4.59106 5.40992 4.68591L6.77259 6.14894L5.64276 8.15735C5.60011 8.23308 5.57696 8.31798 5.57533 8.40459L5.57112 8.62517L3.58471 10.7776L2.57746 10.4594C2.44326 10.417 2.29755 10.4283 2.17166 10.4907C2.04577 10.5531 1.94974 10.6617 1.9042 10.7932L1.35071 12.3965C1.31435 12.5016 1.31239 12.6154 1.34509 12.7217C1.37779 12.828 1.44351 12.9215 1.53298 12.989L1.81851 13.2043L2.5455 14.6715L2.55077 14.9911L0.356099 15.7668C0.256638 15.802 0.169905 15.8654 0.106725 15.9489C0.0435442 16.0324 0.00671505 16.1325 0.000833882 16.2365C-0.00504729 16.3406 0.0202801 16.444 0.0736545 16.534C0.127029 16.6239 0.206086 16.6963 0.300961 16.7423L0.972461 17.0667C0.858398 17.1468 0.780471 17.2675 0.755225 17.4033C0.729978 17.539 0.759402 17.6792 0.837248 17.7939L1.65731 18.9983C1.70966 19.0753 1.7816 19.1373 1.86592 19.1783L3.19663 19.8262C3.30863 19.8811 3.43654 19.8958 3.55834 19.8677C3.68013 19.8397 3.78819 19.7706 3.86392 19.6725L4.45008 18.9148L4.76616 19.6524L4.57686 20.6344C4.55861 20.7291 4.56686 20.8269 4.60074 20.9173L9.00308 32.6537C9.04186 32.7549 9.1108 32.8421 9.20081 32.9039C9.29083 32.9657 9.39772 32.9992 9.50741 33C9.57293 33.0001 9.63792 32.9883 9.69916 32.9654L10.7774 32.5592C10.9017 32.5123 11.0041 32.4216 11.0646 32.3047L11.3014 31.8469L11.6691 31.404L12.5931 30.3115C12.653 30.2406 12.693 30.1555 12.7093 30.0646L13.1968 27.3636C13.2125 27.2769 13.206 27.1876 13.1778 27.1039L12.9204 26.338L13.4121 24.8756L13.8223 24.6263L14.335 24.5668C14.4083 24.5582 14.479 24.5349 14.5428 24.4983C14.6065 24.4616 14.6619 24.4125 14.7056 24.3538L15.3412 23.4995C15.5714 23.4318 15.7878 23.3253 15.9811 23.1848C16.1852 22.9974 16.3766 22.7948 16.5736 22.6002C16.7385 22.4646 16.8741 22.2976 16.9722 22.1092C17.0716 21.8789 17.1672 21.6466 17.2644 21.4167L19.1764 20.3785C19.251 20.3381 19.3147 20.2808 19.3625 20.2113C19.4102 20.1418 19.4406 20.0622 19.451 19.9789L19.5448 19.2334L20.2602 18.6939L21.2197 18.8823C21.3094 18.8999 21.4022 18.8946 21.4893 18.867C21.5763 18.8394 21.6548 18.7903 21.7173 18.7244C21.7798 18.6586 21.8242 18.5781 21.8463 18.4906C21.8685 18.403 21.8676 18.3114 21.8438 18.2243L20.9307 14.9129L22.0545 14.4541L22.8254 14.9506C22.8962 14.9962 22.977 15.0247 23.0611 15.0337L23.6307 15.0954L22.9926 16.0258C22.9371 16.1071 22.9056 16.202 22.9015 16.3C22.8975 16.3979 22.921 16.495 22.9695 16.5805C23.0181 16.6661 23.0897 16.7366 23.1765 16.7844C23.2632 16.8323 23.3618 16.8554 23.4611 16.8513L23.8825 16.8309L24.855 18.1405C24.9178 18.2249 25.0045 18.2891 25.1041 18.325C25.2038 18.3609 25.312 18.367 25.4152 18.3424C25.5184 18.3178 25.6118 18.2637 25.6839 18.1869C25.7559 18.1101 25.8033 18.0139 25.8201 17.9106L26.0849 16.2658L26.5366 16.351C26.6073 16.3643 26.68 16.3635 26.7504 16.3485C26.8209 16.3336 26.8875 16.3049 26.9465 16.2641C27.0054 16.2234 27.0555 16.1713 27.0936 16.1111C27.1318 16.0509 27.1574 15.9837 27.1687 15.9136L27.4609 14.1047L27.7208 13.7667C27.7773 13.6937 27.8137 13.6074 27.8262 13.5163L27.8701 13.1912L29.4522 12.6493C29.54 12.6195 29.6185 12.5679 29.6801 12.4994C29.7416 12.4309 29.7841 12.3478 29.8035 12.2583L29.9889 11.395C30.0036 11.3249 30.0037 11.2526 29.9892 11.1824C29.9747 11.1122 29.9459 11.0457 29.9046 10.9868ZM28.811 11.7455L27.2024 12.2964C27.1084 12.3287 27.0252 12.386 26.9623 12.4622C26.8993 12.5383 26.8591 12.6302 26.846 12.7275L26.7757 13.2376L26.5204 13.5697C26.467 13.6391 26.4318 13.7205 26.4179 13.8065L26.1917 15.2062L25.7397 15.1206C25.6689 15.1073 25.5962 15.1082 25.5257 15.1231C25.4553 15.138 25.3886 15.1668 25.3297 15.2076C25.2707 15.2484 25.2207 15.3005 25.1825 15.3608C25.1443 15.421 25.1188 15.4882 25.1075 15.5583L24.9579 16.4864L24.5772 15.9735C24.5345 15.916 24.4805 15.8676 24.4185 15.8312L25.0155 14.9596C25.0674 14.884 25.0987 14.7964 25.1062 14.7054C25.1137 14.6143 25.0972 14.5229 25.0583 14.44C25.0194 14.3571 24.9595 14.2855 24.8843 14.2322C24.8091 14.1788 24.7212 14.1455 24.6292 14.1355L23.3009 13.9918L22.4001 13.4114C22.3268 13.3642 22.243 13.3353 22.1558 13.3273C22.0687 13.3192 21.9808 13.3323 21.9 13.3654L20.0779 14.1102C19.9571 14.1596 19.8586 14.2507 19.801 14.3666C19.7434 14.4824 19.7306 14.6149 19.765 14.7394L20.5756 17.6744L20.2296 17.6052C20.1547 17.5905 20.0774 17.5917 20.003 17.6088C19.9286 17.6259 19.8587 17.6584 19.798 17.7042L18.7093 18.5246C18.6526 18.5674 18.605 18.6209 18.5695 18.682C18.534 18.7431 18.5112 18.8106 18.5024 18.8805L18.415 19.5779L16.5782 20.5731C16.4713 20.6311 16.3876 20.7232 16.3408 20.8342L15.9871 21.6733L15.2784 22.3724L14.7867 22.575C14.6964 22.612 14.618 22.6728 14.5602 22.7505L13.9761 23.5397L13.5775 23.5861C13.4998 23.5951 13.425 23.6208 13.3584 23.6612L12.6791 24.0733C12.5714 24.1388 12.4905 24.2398 12.4508 24.3583L11.8429 26.1707C11.8065 26.279 11.8065 26.3959 11.8429 26.5042L12.1133 27.3093L11.6747 29.7412L10.8392 30.7291L10.4314 31.2191C10.4069 31.2485 10.3857 31.2804 10.3682 31.3143L10.1993 31.6412L9.82209 31.7832L5.65962 20.6871L5.85138 19.6925C5.87123 19.5898 5.85987 19.4835 5.81872 19.3871L5.37971 18.3615L5.405 17.5145C5.40842 17.4022 5.37562 17.2918 5.31131 17.1992C5.247 17.1065 5.15452 17.0364 5.04718 16.9988C4.93984 16.9613 4.8232 16.9584 4.71406 16.9904C4.60492 17.0225 4.50892 17.0879 4.43989 17.1772L3.276 18.6814L2.4714 18.2901L2.10404 17.6748L2.40783 17.5183C2.49584 17.4728 2.56936 17.4041 2.62022 17.32C2.67109 17.2358 2.69733 17.1394 2.69602 17.0414C2.69471 16.9435 2.66591 16.8478 2.61281 16.7649C2.55971 16.6821 2.48438 16.6154 2.39519 16.5722L2.14092 16.4493L1.91825 16.3416L3.27776 15.8613C3.38347 15.8239 3.47465 15.7548 3.53851 15.6637C3.60238 15.5726 3.63573 15.4641 3.63388 15.3533L3.61808 14.5358C3.61681 14.4581 3.59822 14.3816 3.56364 14.3117L2.72953 12.6261C2.69297 12.5522 2.63946 12.4877 2.57325 12.4377L2.49387 12.3778L2.75341 11.6277L3.58717 11.8913C3.68539 11.9223 3.79058 11.9248 3.89022 11.8985C3.98985 11.8723 4.07971 11.8183 4.1491 11.7431L6.50427 9.19099C6.59211 9.09616 6.64204 8.97311 6.64475 8.84471L6.65002 8.55661L7.90276 6.32866C7.95753 6.23129 7.97985 6.11941 7.96655 6.00885C7.95325 5.89829 7.90501 5.79465 7.82865 5.71263L6.3399 4.11456L6.29354 2.26439C6.29184 2.1912 6.2748 2.11915 6.24349 2.05276C6.21218 1.98638 6.16728 1.92709 6.11162 1.87864L5.65927 1.48873L6.27458 1.12549L8.89666 2.25885C8.97398 2.29231 9.0582 2.30737 9.14251 2.30283L11.32 2.18925L11.7941 2.47078L10.7317 4.62151C10.6934 4.69906 10.6748 4.78466 10.6776 4.87089C10.6804 4.95713 10.7045 5.04138 10.7479 5.11634L10.8371 5.27078L10.666 5.31198C10.5825 5.33221 10.5051 5.37187 10.4404 5.42766C10.3756 5.48344 10.3253 5.55372 10.2938 5.63261C10.2623 5.71149 10.2503 5.79668 10.2591 5.88103C10.2678 5.96539 10.2969 6.04645 10.344 6.11743L11.7309 8.21275C11.7963 8.31157 11.8933 8.38603 12.0066 8.42433L12.2387 8.50293L11.8812 9.84649C11.8482 9.96966 11.8613 10.1004 11.9181 10.2149C11.9748 10.3293 12.0714 10.4198 12.1903 10.4698L19.4869 13.5392C19.6156 13.5934 19.7607 13.596 19.8913 13.5464C20.022 13.4968 20.1279 13.399 20.1865 13.2736L20.7835 12.0003L21.998 12.9758C22.0939 13.0528 22.2138 13.0949 22.3376 13.0949H23.8333C23.9674 13.095 24.0966 13.0457 24.1956 12.9567C24.2947 12.8677 24.3565 12.7455 24.3689 12.6139L24.4357 11.9089L26.4108 10.6623C26.4734 10.6229 26.5269 10.5711 26.5682 10.5103L26.6823 10.342L28.1356 10.3043L28.8868 11.3947L28.811 11.7455Z" fill="#1E2E49"/>
<path fill-rule="evenodd" clip-rule="evenodd" d="M10 12C11.6568 12 13 13.4165 13 15.1637C13 16.557 11.0926 19.6169 10.3196 20.7999C10.1452 21.0667 9.8548 21.0667 9.6804 20.7999C8.9074 19.6165 7 16.5568 7 15.1637C7 13.4165 8.3432 12 10 12ZM10 13.4764C9.57565 13.4764 9.16869 13.6542 8.86863 13.9706C8.56857 14.287 8.4 14.7162 8.4 15.1637C8.4 15.3853 8.44139 15.6047 8.52179 15.8094C8.6022 16.0141 8.72006 16.2001 8.86863 16.3568C9.16869 16.6732 9.57565 16.851 10 16.851C10.4243 16.851 10.8313 16.6732 11.1314 16.3568C11.4314 16.0404 11.6 15.6112 11.6 15.1637C11.6 14.7162 11.4314 14.287 11.1314 13.9706C10.8313 13.6542 10.4243 13.4764 10 13.4764Z" fill="#FF693D"/>
</svg>
