<svg width="19" height="27" viewBox="0 0 19 27" fill="none" xmlns="http://www.w3.org/2000/svg">
<path d="M13.0809 10.9074H14.5396C14.6617 10.9073 14.7787 10.8566 14.865 10.7664C14.9514 10.6762 14.9999 10.5539 15 10.4264C15 10.1611 14.7936 9.94508 14.5396 9.94508H13.0809C12.847 9.94496 12.6174 10.0109 12.4165 10.1359C12.2155 10.2609 12.0506 10.4403 11.9392 10.6552L10.809 12.8316C10.6494 13.1384 10.225 13.0907 10.12 12.7715L8.88438 9.00241C8.4957 7.81592 7.12084 7.67483 6.53693 8.62119L5.76723 9.86652C5.69792 9.97896 5.57849 10.0471 5.4502 10.0471H4.46042C4.20644 10.0471 4 10.2631 4 10.5285C4 10.7938 4.20644 11.0098 4.46042 11.0098H5.45094C5.668 11.0103 5.88168 10.9536 6.07226 10.845C6.26283 10.7365 6.42416 10.5795 6.54135 10.3887L7.31032 9.14297C7.48188 8.86471 7.88355 8.91939 7.98492 9.22884L9.24859 13.0831C9.61516 14.2027 11.0797 14.3268 11.6189 13.2902L12.7491 11.1138C12.7815 11.0514 12.8294 10.9992 12.8878 10.9629C12.9462 10.9266 13.0129 10.9074 13.0809 10.9074Z" fill="#FF693D"/>
<path d="M14 2.5096V3.09191C14 3.59343 13.6469 4 13.2114 4H5.7886C5.35247 4 4.99916 3.59238 5 3.09016L5.00099 2.50889C5.00168 2.12498 5.1945 1.75855 5.50829 1.62883C5.71719 1.54205 5.9069 1.40331 6.06393 1.22249C6.22096 1.04167 6.34144 0.823215 6.4168 0.582671C6.52938 0.221597 6.8476 0 7.18069 0H11.7722C12.1089 0 12.4318 0.219928 12.5506 0.582671C12.7097 1.06838 13.0598 1.45439 13.4893 1.62883C13.805 1.75706 14 2.12419 14 2.5096Z" fill="#FF693D"/>
<path d="M19 3.91959C19 2.98192 18.244 2.21934 17.3148 2.21934H14.6174C14.4791 1.9106 14.2297 1.66498 13.911 1.55152C13.5651 1.42875 13.2837 1.15478 13.1583 0.81943C12.9753 0.329173 12.4831 0 11.9334 0H7.01636C6.46743 0 5.98018 0.331645 5.80456 0.825198C5.6853 1.16055 5.41573 1.43246 5.08328 1.55276C4.76846 1.66712 4.52128 1.91217 4.38372 2.21934H1.68558C0.755998 2.21934 0 2.98192 0 3.91959V25.2998C0 26.2374 0.755998 27 1.68558 27H17.3148C18.244 27 19 26.2374 19 25.2998V22.2709C19 22.0377 18.8129 21.849 18.5818 21.849C18.3506 21.849 18.1635 22.0377 18.1635 22.2709V25.2998C18.1635 25.7719 17.7829 26.1563 17.3148 26.1563H1.68558C1.21752 26.1563 0.836458 25.7719 0.836458 25.2998V3.91959C0.836458 3.44746 1.21752 3.06308 1.68558 3.06308H4.26316L4.26275 3.31933C4.26186 3.4869 4.29397 3.65297 4.35721 3.80792C4.42045 3.96287 4.51356 4.10361 4.63115 4.22198C4.74822 4.34091 4.88753 4.43521 5.041 4.49942C5.19447 4.56363 5.35905 4.59648 5.52519 4.59606H13.4748C14.1708 4.59606 14.7373 4.02464 14.7373 3.32222V3.06308H17.3148C17.7829 3.06308 18.1635 3.44746 18.1635 3.91959V18.1956C18.1635 18.4287 18.3506 18.6174 18.5818 18.6174C18.8129 18.6174 19 18.4287 19 18.1956V3.91959ZM13.9008 3.32222C13.9008 3.55952 13.7097 3.75232 13.4748 3.75232H5.52519C5.46909 3.75244 5.41352 3.74131 5.36171 3.7196C5.3099 3.69789 5.26288 3.66602 5.22337 3.62585C5.18364 3.58598 5.15219 3.53851 5.13087 3.48624C5.10955 3.43396 5.09879 3.37792 5.09921 3.32139L5.10002 2.77593C5.10043 2.57983 5.2103 2.40309 5.36632 2.34664C5.64854 2.24493 5.90487 2.08131 6.11683 1.86759C6.32878 1.65386 6.49108 1.39535 6.592 1.1107C6.64796 0.953324 6.82236 0.843738 7.01636 0.843738H11.9334C12.1339 0.843738 12.3157 0.956208 12.3757 1.11688C12.5869 1.68253 13.057 2.14271 13.6329 2.34747C13.7905 2.4035 13.9008 2.57983 13.9008 2.77593V3.32222Z" fill="#1E2E49"/>
<path d="M3.39227 17.8659H12.7661C12.9829 17.8659 13.1584 17.6722 13.1584 17.4329C13.1584 17.1936 12.9829 17 12.7661 17H3.39227C3.17545 17 3 17.1936 3 17.4329C3 17.6722 3.17545 17.8659 3.39227 17.8659ZM15.6077 19.5668H3.39227C3.17545 19.5668 3 19.7604 3 19.9997C3 20.239 3.17545 20.4327 3.39227 20.4327H15.6077C15.8246 20.4327 16 20.239 16 19.9997C16 19.7604 15.8246 19.5668 15.6077 19.5668ZM15.6077 22.1341H3.39227C3.17545 22.1341 3 22.3278 3 22.5671C3 22.8064 3.17545 23 3.39227 23H15.6077C15.8246 23 16 22.8064 16 22.5671C16 22.3278 15.8246 22.1341 15.6077 22.1341Z" fill="#1E2E49"/>
</svg>
