<svg width="21" height="31" viewBox="0 0 21 31" fill="none" xmlns="http://www.w3.org/2000/svg">
<path d="M17.9814 26.0538H15.9491V25.0097C18.4878 23.835 20.127 21.3081 20.127 18.5543C20.127 15.7997 18.4948 13.2868 15.9693 12.1051C15.9763 12.0206 15.9959 11.9417 15.9959 11.8509C15.9959 10.3423 14.8763 9.09635 13.411 8.84771V5.35565C13.4109 5.31225 13.4022 5.2693 13.3853 5.22931C13.3685 5.18932 13.3439 5.15309 13.3128 5.12273C13.2818 5.09237 13.2451 5.06849 13.2047 5.05248C13.1644 5.03647 13.1213 5.02866 13.0779 5.02949H12.6176V3.84848H13.0108C13.055 3.85052 13.0991 3.84358 13.1405 3.8281C13.1819 3.81261 13.2197 3.78889 13.2517 3.75837C13.2836 3.72785 13.3091 3.69116 13.3264 3.65053C13.3438 3.6099 13.3528 3.56616 13.3528 3.52197C13.3528 3.47777 13.3438 3.43404 13.3264 3.3934C13.3091 3.35277 13.2836 3.31608 13.2517 3.28556C13.2197 3.25504 13.1819 3.23132 13.1405 3.21583C13.0991 3.20035 13.055 3.19342 13.0108 3.19546H12.6176V1.00943C12.6177 0.965941 12.6091 0.922875 12.5923 0.88276C12.5756 0.842646 12.5509 0.806294 12.5199 0.775839C12.4888 0.745385 12.452 0.721444 12.4116 0.705426C12.3712 0.689409 12.328 0.681639 12.2845 0.68257H7.88727C7.84388 0.681735 7.80079 0.689549 7.76045 0.705557C7.72011 0.721565 7.68336 0.745447 7.65235 0.775807C7.62134 0.806168 7.59665 0.842402 7.57979 0.882393C7.56293 0.922383 7.55422 0.965329 7.55413 1.00873V3.18917H7.16093C7.11631 3.18625 7.07158 3.19252 7.02947 3.20759C6.98736 3.22265 6.94876 3.24621 6.91612 3.27678C6.88348 3.30735 6.85748 3.3443 6.83969 3.38533C6.8219 3.42636 6.81271 3.47061 6.81271 3.51533C6.81271 3.56005 6.8219 3.6043 6.83969 3.64533C6.85748 3.68637 6.88348 3.72331 6.91612 3.75388C6.94876 3.78446 6.98736 3.80801 7.02947 3.82308C7.07158 3.83815 7.11631 3.84441 7.16093 3.84149H7.55413V5.02321H7.0946C7.05121 5.02237 7.00808 5.03018 6.96774 5.04619C6.92741 5.0622 6.89065 5.08608 6.85964 5.11644C6.82863 5.1468 6.80399 5.18304 6.78713 5.22303C6.77027 5.26302 6.76151 5.30596 6.76143 5.34936V17.6596C6.76143 17.8426 6.90813 17.9864 7.0946 17.9864H7.55413V20.0684C7.55413 20.2514 7.70079 20.3946 7.88727 20.3946H12.2845C12.3279 20.3955 12.3711 20.3877 12.4114 20.3718C12.4518 20.3558 12.4886 20.3319 12.5197 20.3015C12.5507 20.2712 12.5753 20.2349 12.5922 20.1949C12.609 20.1548 12.6176 20.1118 12.6176 20.0684V17.9864H13.0779C13.1213 17.9873 13.1645 17.9794 13.2049 17.9634C13.2453 17.9473 13.2821 17.9234 13.3131 17.893C13.3441 17.8625 13.3687 17.8262 13.3856 17.7861C13.4024 17.7461 13.411 17.703 13.411 17.6596V14.8603C13.9647 14.7667 14.4824 14.5239 14.9085 14.1582C15.3346 13.7926 15.653 13.3177 15.8296 12.7847C18.0345 13.8882 19.4537 16.1203 19.4537 18.5549C19.4537 20.9896 18.0813 23.1435 15.9428 24.2659V23.4697C15.9427 23.4263 15.934 23.3833 15.9171 23.3433C15.9002 23.3034 15.8756 23.2671 15.8446 23.2368C15.8136 23.2064 15.7768 23.1825 15.7365 23.1665C15.6961 23.1505 15.653 23.1427 15.6096 23.1435H4.94207C4.89745 23.1406 4.85272 23.1469 4.81061 23.1619C4.7685 23.177 4.7299 23.2006 4.69726 23.2311C4.66462 23.2617 4.63862 23.2986 4.62083 23.3397C4.60304 23.3807 4.59385 23.425 4.59385 23.4697C4.59385 23.5144 4.60304 23.5587 4.62083 23.5997C4.63862 23.6407 4.66462 23.6777 4.69726 23.7082C4.7299 23.7388 4.7685 23.7624 4.81061 23.7774C4.85272 23.7925 4.89745 23.7988 4.94207 23.7958H12.9976V26.0608H2.21058C1.30404 26.0608 0.571411 26.7795 0.571411 27.6671V29.6904C0.571411 29.8727 0.718071 30.0166 0.904547 30.0166H19.2805C19.3239 30.0175 19.3671 30.0098 19.4075 29.9938C19.4478 29.9778 19.4846 29.954 19.5156 29.9236C19.5467 29.8932 19.5713 29.8569 19.5882 29.8169C19.605 29.7769 19.6137 29.7339 19.6136 29.6904V27.6664C19.6136 26.7795 18.881 26.0608 17.9752 26.0608L17.9814 26.0538ZM8.22739 1.33559H11.9583V3.18917H8.22739V1.33559ZM8.22739 3.84149H11.9583V5.02321H8.22739V3.84149ZM11.9583 19.7423H8.22739V17.9864H11.9583V19.7423ZM7.43401 17.3334V5.68321H12.7447V8.81629C11.0853 8.88124 9.75274 10.2201 9.75274 11.8579C9.75274 13.4963 11.0853 14.8345 12.7447 14.8995V17.3341L7.43401 17.3334ZM12.8774 14.259C11.5253 14.259 10.426 13.1821 10.426 11.8572C10.426 10.5323 11.5253 9.45463 12.8774 9.45463C14.2303 9.45463 15.3296 10.5323 15.3296 11.8572C15.3296 13.1821 14.2303 14.259 12.8774 14.259ZM15.2828 23.7958V26.0405H13.6708V23.7951L15.2828 23.7958ZM18.9543 29.3566H1.24467V27.6595C1.24467 27.137 1.67771 26.7068 2.21688 26.7068H17.9814C18.5213 26.7068 18.9543 27.1377 18.9543 27.6595V29.3566Z" fill="black"/>
<path d="M12.7932 10.1111C11.8293 10.1111 11.0476 10.8911 11.0476 11.8536C11.0476 12.8153 11.8293 13.6031 12.7932 13.6031C13.7579 13.6031 14.5397 12.8231 14.5397 11.8536C14.5397 10.8841 13.7579 10.1111 12.7932 10.1111Z" fill="#FF693D"/>
</svg>
