<svg width="25" height="29" viewBox="0 0 25 29" fill="none" xmlns="http://www.w3.org/2000/svg">
<path d="M22.6717 20.4601C22.5882 20.5347 22.2215 20.8942 22.2392 20.9927L24.9748 25.908C25.0778 26.1685 24.8485 26.4649 24.5913 26.479L22.3484 26.2489L21.4297 28.3403C21.291 28.6303 20.9351 28.679 20.7226 28.4395L18.0245 23.6447L15.3249 28.4699C15.1484 28.653 14.8418 28.6278 14.6929 28.4248C14.356 27.7081 14.0826 26.9566 13.7314 26.2498C12.9877 26.3042 12.2325 26.398 11.4869 26.4883C11.1729 26.4204 11.0069 26.1625 11.1311 25.8382L13.8508 20.9687C13.485 20.3446 12.7553 20.1512 12.4993 19.432C12.3166 18.9186 12.4519 18.5572 12.4292 18.0649C12.3842 17.088 11.7156 16.4763 12.2381 15.4684C12.4233 15.1109 12.692 14.8477 12.8595 14.4467C13.1459 13.7611 13.0541 13.1366 13.6861 12.6132C14.0767 12.2899 14.5986 12.2154 15.0134 11.9359C15.2998 11.7432 15.503 11.4552 15.763 11.2381C16.6823 10.4702 17.4006 11.1178 18.3937 11.0102C18.7499 10.9715 19.0577 10.783 19.4477 10.8252C20.2811 10.9152 20.5805 11.6472 21.2293 12.0249C21.6481 12.2688 22.1098 12.3335 22.4874 12.6776C23.0421 13.183 22.9689 13.8568 23.2423 14.4889C23.4976 15.0788 24.0102 15.4405 24.0548 16.1447C24.0936 16.7571 23.7393 17.2305 23.6853 17.8127C23.6251 18.4612 23.8256 19.0191 23.5013 19.6372C23.2913 20.0379 22.9813 20.1829 22.672 20.4601H22.6717ZM20.044 12.144C19.2277 11.4171 18.736 11.9398 17.7769 11.8767C17.1704 11.8367 16.7717 11.5173 16.2278 11.974C15.7891 12.3424 15.5741 12.6654 15.0143 12.9285C14.3923 13.2211 14.1174 13.0645 13.9014 13.8587C13.7668 14.3532 13.7345 14.6768 13.4723 15.1429C13.1763 15.6684 12.7606 15.8867 12.9349 16.5845C13.0721 17.1319 13.2576 17.4344 13.2682 18.0633C13.2787 18.6923 13.0479 19.0204 13.5623 19.4871C13.8453 19.7438 14.1397 19.9118 14.3985 20.2233C14.7581 20.6554 14.9638 21.4738 15.5474 21.5641C15.9228 21.622 16.2656 21.5945 16.6516 21.704C17.0655 21.8214 17.7133 22.3048 18.0556 22.3048C18.413 22.3048 18.9541 21.8333 19.3729 21.7107C19.7918 21.5881 20.5526 21.6441 20.8712 21.4335C21.1449 21.253 21.4669 20.4809 21.7437 20.1592C22.0384 19.8164 22.8063 19.4144 22.8461 18.9941C22.9013 18.4119 22.7862 17.8866 22.9211 17.281C22.9844 16.9962 23.197 16.5919 23.2146 16.3339C23.2457 15.8771 22.7083 15.3487 22.5085 14.9268C22.2935 14.4732 22.2832 14.0843 22.1334 13.6509C21.9602 13.15 21.6062 13.166 21.2023 12.9807C20.6664 12.7345 20.4641 12.5191 20.044 12.1449V12.144ZM14.4887 21.936C14.4565 21.9021 14.422 21.8077 14.3677 21.8214L14.2771 21.952L12.3063 25.4986C12.4035 25.4941 12.503 25.5066 12.6002 25.4983C13.0296 25.4618 13.5018 25.3456 13.9331 25.3366C14.2638 25.3296 14.3085 25.4432 14.4403 25.7111L15.0798 27.1611L17.3894 23.0048C17.046 22.8499 16.736 22.637 16.3668 22.5404C15.6032 22.3406 15.1223 22.6009 14.4887 21.9357V21.936ZM21.7592 21.8218C21.7136 21.7878 21.475 22.0756 21.416 22.1226C20.914 22.5247 20.4313 22.3886 19.8678 22.508C19.4297 22.6012 19.0704 22.8617 18.66 23.0048L21.0003 27.1934L21.7223 25.5405C21.8389 25.3626 21.9764 25.3299 22.1777 25.3395C22.6192 25.361 23.0747 25.465 23.5113 25.4986C23.5984 25.5053 23.6872 25.4957 23.7741 25.4986L21.7592 21.8214V21.8218Z" fill="#FF693D"/>
<path d="M12.5119 27.7561C12.8907 27.824 12.9848 28.5303 12.3839 28.5917L0.746652 28.5934C0.596982 28.5824 0.414762 28.538 0.335938 28.3967C0.237009 28.219 0.288707 27.3324 0.286792 27.0633C0.24371 20.582 0.358915 14.092 0.286792 7.60709C0.282005 7.16671 0.192969 7.17218 0.49199 6.78815C2.00656 4.84381 3.87759 3.04562 5.40142 1.09614C5.65034 0.863716 5.8383 0.570456 6.07094 0.324195C6.22795 0.15809 6.35752 -0.0189608 6.61186 0.00164142L20.7325 0.00679198C20.9696 0.0283599 21.1372 0.2273 21.1359 0.468411V9.63576C21.149 10.0423 20.6773 10.2812 20.401 9.95671C20.3841 9.93675 20.3059 9.80476 20.3059 9.79543V0.887538C20.3059 0.883997 20.2615 0.839251 20.258 0.839251H6.74143L1.75413 6.58888L1.62489 6.78847H6.82153C6.82089 6.66936 6.85567 6.53384 6.85504 6.4202C6.85089 5.39814 6.85153 4.38734 6.85472 3.36238C6.85536 3.10421 6.81323 2.79292 6.82919 2.53572C6.8595 2.04577 7.6053 2.01358 7.65189 2.52606L7.65125 7.25556C7.65732 7.40364 7.44893 7.62479 7.31585 7.62479H1.13056L1.1146 27.7561H12.5119Z" fill="black"/>
<path d="M11.7419 10.9271C12.0255 11.1772 11.7724 11.6198 11.373 11.5905L3.8492 11.589C3.22487 11.5341 3.23582 10.8757 3.68233 10.8291C6.0579 10.84 8.43413 10.8163 10.8097 10.8312C11.0419 10.8327 11.2937 10.7999 11.5296 10.8365C11.5876 10.8455 11.7007 10.8912 11.7415 10.9271H11.7419Z" fill="black"/>
<path d="M10.2064 14.8121C10.439 15.0331 10.2869 15.4288 9.92229 15.4558H3.76359C3.23223 15.3947 3.22422 14.7391 3.76359 14.684L9.85369 14.6831C9.94736 14.6801 10.1483 14.7566 10.2064 14.8121Z" fill="black"/>
<path d="M10.2064 18.6766C10.439 18.8976 10.2869 19.2933 9.92229 19.3203H3.76359C3.23223 19.2592 3.22422 18.6036 3.76359 18.5485L9.85369 18.5476C9.94736 18.5446 10.1483 18.6211 10.2064 18.6766Z" fill="black"/>
<path d="M7.6804 22.5405C7.913 22.7615 7.76083 23.1572 7.39626 23.1842H3.55595C3.02459 23.1231 3.01658 22.4675 3.55595 22.4124L7.32767 22.4115C7.42133 22.4085 7.62225 22.485 7.6804 22.5405Z" fill="black"/>
<path d="M16.6853 15.1583C15.2689 16.2272 15.5404 18.5016 17.214 19.1461C18.5522 19.6615 20.004 18.8447 20.2991 17.4864C20.359 17.211 20.3007 16.768 20.7416 16.768C21.3043 16.768 21.1275 17.5231 21.0353 17.8561C20.3578 20.3055 17.0135 20.9175 15.5371 18.8166C13.8863 16.4675 15.9795 13.3295 18.8107 14.0036C19.132 14.0802 19.6183 14.2336 19.4867 14.6505C19.3448 15.0997 18.9162 14.8494 18.6189 14.7826C17.9426 14.6307 17.242 14.738 16.6847 15.1586L16.6853 15.1583Z" fill="#FF693D"/>
<path d="M20.1305 16.3592C19.583 16.957 19.008 17.6502 18.4342 18.2133C18.1493 18.4926 17.8526 18.6984 17.4833 18.4017C17.3449 18.2905 16.6705 17.5543 16.5756 17.4054C16.3158 16.9985 16.7636 16.5185 17.1373 16.8202C17.2543 16.9149 17.8206 17.6208 17.8823 17.6087L20.4353 14.8427C20.7355 14.4798 21.2279 14.7872 21.1198 15.2467C21.0832 15.4022 20.2911 16.1841 20.1305 16.3595V16.3592Z" fill="#FF693D"/>
</svg>
