<svg width="10" height="10" viewBox="0 0 10 10" fill="none" xmlns="http://www.w3.org/2000/svg">
<path d="M9.38017 5.00001L9.93282 4.04485C9.99926 3.92993 10.0173 3.79334 9.98304 3.66511C9.9488 3.53687 9.865 3.42749 9.75009 3.36103L8.79401 2.80836V1.70704C8.79401 1.57427 8.74126 1.44694 8.64737 1.35306C8.55348 1.25918 8.42614 1.20644 8.29338 1.20644H7.19259L6.64049 0.250786C6.57381 0.136108 6.4646 0.0523016 6.33659 0.0175078C6.2731 0.000297131 6.20684 -0.00414218 6.1416 0.00444814C6.07643 0.0130445 6.01353 0.0344962 5.95665 0.067572L5.00055 0.62023L4.04443 0.0670674C3.92945 0.000687659 3.79282 -0.017304 3.66459 0.0170573C3.53635 0.0514186 3.42701 0.135315 3.36063 0.250287L2.80798 1.20644H1.7072C1.57443 1.20644 1.4471 1.25918 1.35323 1.35306C1.25935 1.44694 1.20661 1.57427 1.20661 1.70704V2.80786L0.250491 3.36052C0.193436 3.39334 0.143433 3.43711 0.103348 3.48931C0.0632636 3.54152 0.0338892 3.60112 0.0169133 3.66471C-6.85503e-05 3.7283 -0.00431552 3.79462 0.00441269 3.85986C0.0131409 3.92509 0.0346761 3.98796 0.0677749 4.04485L0.620422 5.00001L0.0677749 5.95516C0.00169155 6.07014 -0.0162394 6.20668 0.0178985 6.33482C0.0520305 6.46301 0.135456 6.57252 0.249986 6.63944L1.20611 7.19211V8.29293C1.20611 8.42569 1.25885 8.55304 1.35273 8.64693C1.4466 8.74083 1.57393 8.79357 1.70669 8.79357H2.80798L3.36063 9.74968C3.40494 9.82549 3.46822 9.88839 3.54423 9.93224C3.62024 9.97615 3.70637 9.99952 3.79413 10C3.88124 10 3.96784 9.97699 4.04493 9.93242L5.00004 9.37976L5.95617 9.93242C6.07114 9.99868 6.20768 10.0167 6.33587 9.98246C6.46406 9.94822 6.57339 9.86448 6.63995 9.74968L7.19211 8.79357H8.2929C8.42566 8.79357 8.553 8.74083 8.64689 8.64693C8.74072 8.55304 8.79347 8.42569 8.79347 8.29293V7.19211L9.7496 6.63944C9.80655 6.60652 9.85647 6.56273 9.89648 6.51053C9.93648 6.45833 9.9658 6.39873 9.9828 6.33518C9.99974 6.27162 10.004 6.20536 9.99535 6.14012C9.9867 6.07494 9.96526 6.01205 9.93234 5.95516L9.38017 5.00001ZM3.74858 2.49198C3.94779 2.49205 4.13882 2.57125 4.27964 2.71216C4.42046 2.85308 4.49953 3.04417 4.49946 3.24338C4.49939 3.4426 4.42019 3.63364 4.27928 3.77446C4.13837 3.91528 3.94729 3.99435 3.74808 3.99429C3.54887 3.99422 3.35784 3.91502 3.21703 3.7741C3.07621 3.63319 2.99714 3.4421 2.9972 3.24288C2.99727 3.04367 3.07647 2.85263 3.21738 2.71181C3.35829 2.57099 3.54937 2.49192 3.74858 2.49198ZM3.89876 7.29777L3.09782 6.69753L6.10136 2.69273L6.90227 3.29294L3.89876 7.29777ZM6.25153 7.49799C6.1529 7.49793 6.05522 7.47847 5.96409 7.44075C5.87297 7.40296 5.79019 7.34757 5.72045 7.27783C5.65071 7.20803 5.59544 7.12519 5.55772 7.03406C5.51999 6.94293 5.50059 6.84525 5.50065 6.74661C5.50065 6.64797 5.52012 6.5503 5.5579 6.45917C5.59568 6.36804 5.65107 6.28526 5.72081 6.21551C5.79061 6.14577 5.87339 6.0905 5.96458 6.05278C6.0557 6.01505 6.15338 5.99565 6.25201 5.99571C6.4512 5.99577 6.64223 6.07494 6.78309 6.21587C6.9239 6.3568 7.00295 6.54789 7.00289 6.74709C7.00283 6.94629 6.9236 7.13732 6.78273 7.27819C6.64181 7.419 6.45072 7.49805 6.25153 7.49799Z" fill="#01B37A"/>
</svg>
