<svg width="132" height="20" viewBox="0 0 132 20" fill="none" xmlns="http://www.w3.org/2000/svg">
<path d="M9.99996 1.6665L12.575 6.88317L18.3333 7.72484L14.1666 11.7832L15.15 17.5165L9.99996 14.8082L4.84996 17.5165L5.83329 11.7832L1.66663 7.72484L7.42496 6.88317L9.99996 1.6665Z" fill="#E7B66B" stroke="#E7B66B" stroke-width="2" stroke-linecap="round" stroke-linejoin="round"/>
<path d="M38 1.6665L40.575 6.88317L46.3333 7.72484L42.1666 11.7832L43.15 17.5165L38 14.8082L32.85 17.5165L33.8333 11.7832L29.6666 7.72484L35.425 6.88317L38 1.6665Z" fill="#E7B66B" stroke="#E7B66B" stroke-width="2" stroke-linecap="round" stroke-linejoin="round"/>
<path d="M66 1.6665L68.575 6.88317L74.3333 7.72484L70.1666 11.7832L71.15 17.5165L66 14.8082L60.85 17.5165L61.8333 11.7832L57.6666 7.72484L63.425 6.88317L66 1.6665Z" fill="#E7B66B" stroke="#E7B66B" stroke-width="2" stroke-linecap="round" stroke-linejoin="round"/>
<path d="M94 1.6665L96.575 6.88317L102.333 7.72484L98.1666 11.7832L99.15 17.5165L94 14.8082L88.85 17.5165L89.8333 11.7832L85.6666 7.72484L91.425 6.88317L94 1.6665Z" fill="#E7B66B" stroke="#E7B66B" stroke-width="2" stroke-linecap="round" stroke-linejoin="round"/>
<path d="M122 1.6665L124.575 6.88317L130.333 7.72484L126.167 11.7832L127.15 17.5165L122 14.8082L116.85 17.5165L117.833 11.7832L113.667 7.72484L119.425 6.88317L122 1.6665Z" stroke="#E7B66B" stroke-linecap="round" stroke-linejoin="round"/>
</svg>
